# File created by Blade
# Date/Time:  Mon Nov 15 14:44:42 2010
#---------------------------------------------------------
:version 1.10
:name HOM
:units
  mass 1.0
  length 1.000000
  angle deg
:documentation
     Acclaim Skeleton File
:root
   axis xyz
   order TX TY TZ RX RY RZ
   position 0.000000 0.000000 0.000000
   orientation 0 0 0
:bonedata
   begin
      id 1
      name LeftUpLeg_dum
      direction 1.000000 0.000000 0.000000
      length 4.719518
      axis 0.0 0.0 0.0 xyz
   end
   begin
      id 2
      name RightUpLeg_dum
      direction -1.000000 0.000000 0.000000
      length 4.719518
      axis 0.0 0.0 0.0 xyz
   end
   begin
      id 3
      name Spine_dum
      direction 0.000000 1.000000 0.000000
      length 0.039370
      axis 0.0 0.0 0.0 xyz
   end
   begin
      id 4
      name LeftUpLeg
      direction 0.000000 -1.000000 0.000000
      length 19.141694
      axis 0.0 0.0 0.0 xyz
      dof rx ry rz
   end
   begin
      id 5
      name LeftLeg
      direction 0.000000 -1.000000 0.000000
      length 19.555040
      axis 0.0 0.0 0.0 xyz
      dof rx ry rz
   end
   begin
      id 6
      name LeftFoot
      direction 0.000000 -0.258819 0.965926
      length 6.929396
      axis 15.0 0.0 0.0 xyz
      dof rx ry rz
   end
   begin
      id 7
      name LeftToeBase
      direction 0.000000 0.000000 1.000000
      length 2.952750
      axis 0.0 0.0 0.0 xyz
      dof rx ry rz
   end
   begin
      id 8
      name RightUpLeg
      direction 0.000000 -1.000000 0.000000
      length 19.141694
      axis 0.0 0.0 0.0 xyz
      dof rx ry rz
   end
   begin
      id 9
      name RightLeg
      direction 0.000000 -1.000000 0.000000
      length 19.555040
      axis 0.0 0.0 0.0 xyz
      dof rx ry rz
   end
   begin
      id 10
      name RightFoot
      direction 0.000000 -0.258819 0.965926
      length 6.929396
      axis 15.0 0.0 0.0 xyz
      dof rx ry rz
   end
   begin
      id 11
      name RightToeBase
      direction 0.000000 0.000000 1.000000
      length 2.952750
      axis 0.0 0.0 0.0 xyz
      dof rx ry rz
   end
   begin
      id 12
      name Spine
      direction 0.000000 1.000000 0.000000
      length 11.965764
      axis 0.0 0.0 0.0 xyz
      dof rx ry rz
   end
   begin
      id 13
      name Spine1
      direction 0.000000 1.000000 0.000000
      length 0.000000
      axis 0.0 0.0 0.0 xyz
      dof rx ry rz
   end
   begin
      id 14
      name Spine1_dum1
      direction 0.000000 1.000000 0.000000
      length 9.788721
      axis 0.0 0.0 0.0 xyz
   end
   begin
      id 15
      name Spine1_dum2
      direction 0.000000 1.000000 0.000000
      length 9.788721
      axis 0.0 0.0 0.0 xyz
   end
   begin
      id 16
      name Spine1_dum3
      direction 0.000000 1.000000 0.000000
      length 9.788721
      axis 0.0 0.0 0.0 xyz
   end
   begin
      id 17
      name Neck
      direction 0.000000 1.000000 0.000000
      length 7.029632
      axis 0.0 0.0 0.0 xyz
      dof rx ry rz
   end
   begin
      id 18
      name Head
      direction 0.000000 1.000000 0.000000
      length 4.527550
      axis 0.0 0.0 0.0 xyz
      dof rx ry rz
   end
   begin
      id 19
      name LeftShoulder
      direction 1.000000 -0.000004 0.000000
      length 9.320257
      axis 0.0 0.0 -90.0 xyz
      dof rx ry rz
   end
   begin
      id 20
      name LeftArm
      direction 1.000000 -0.000004 0.000000
      length 12.801352
      axis 0.0 0.0 -90.0 xyz
      dof rx ry rz
   end
   begin
      id 21
      name LeftForeArm
      direction 1.000000 -0.000004 0.000000
      length 11.278127
      axis 0.0 0.0 -90.0 xyz
      dof rx ry rz
   end
   begin
      id 22
      name LeftHand
      direction 0.000000 0.000000 0.000000
      length 0.000000
      axis 0.0 0.0 -90.0 xyz
      dof rx ry rz
   end
   begin
      id 23
      name LeftHand_dum1
      direction 0.000000 0.000000 0.000000
      length 0.000000
      axis 0.0 0.0 -90.0 xyz
   end
   begin
      id 24
      name LeftHand_dum2
      direction 1.000000 -0.000004 0.000000
      length 3.937000
      axis 0.0 0.0 -90.0 xyz
   end
   begin
      id 25
      name LeftHandThumb
      direction 0.000000 0.000000 1.000000
      length 3.937000
      axis 0.0 0.0 -90.0 xyz
      dof rx ry rz
   end
   begin
      id 26
      name RightShoulder
      direction -1.000000 -0.000004 0.000000
      length 9.320257
      axis 0.0 0.0 90.0 xyz
      dof rx ry rz
   end
   begin
      id 27
      name RightArm
      direction -1.000000 -0.000004 0.000000
      length 12.801352
      axis 0.0 0.0 90.0 xyz
      dof rx ry rz
   end
   begin
      id 28
      name RightForeArm
      direction -1.000000 -0.000004 0.000000
      length 11.278127
      axis 0.0 0.0 90.0 xyz
      dof rx ry rz
   end
   begin
      id 29
      name RightHand
      direction 0.000000 0.000000 0.000000
      length 0.000000
      axis 0.0 0.0 90.0 xyz
      dof rx ry rz
   end
   begin
      id 30
      name RightHand_dum1
      direction 0.000000 0.000000 0.000000
      length 0.000000
      axis 0.0 0.0 90.0 xyz
   end
   begin
      id 31
      name RightHand_dum2
      direction -1.000000 -0.000004 0.000000
      length 5.393690
      axis 0.0 0.0 90.0 xyz
   end
   begin
      id 32
      name RightHandThumb
      direction 0.000000 0.000000 1.000000
      length 3.937000
      axis 0.0 0.0 90.0 xyz
      dof rx ry rz
   end
:hierarchy
   begin
      root LeftUpLeg_dum RightUpLeg_dum Spine_dum
      LeftUpLeg_dum LeftUpLeg
      RightUpLeg_dum RightUpLeg
      Spine_dum Spine
      LeftUpLeg LeftLeg
      LeftLeg LeftFoot
      LeftFoot LeftToeBase
      RightUpLeg RightLeg
      RightLeg RightFoot
      RightFoot RightToeBase
      Spine Spine1
      Spine1 Spine1_dum1 Spine1_dum2 Spine1_dum3
      Spine1_dum1 Neck
      Spine1_dum2 LeftShoulder
      Spine1_dum3 RightShoulder
      Neck Head
      LeftShoulder LeftArm
      LeftArm LeftForeArm
      LeftForeArm LeftHand
      LeftHand LeftHand_dum1 LeftHand_dum2
      LeftHand_dum1 LeftHandThumb
      RightShoulder RightArm
      RightArm RightForeArm
      RightForeArm RightHand
      RightHand RightHand_dum1 RightHand_dum2
      RightHand_dum1 RightHandThumb
   end

# File created by Blade
# Date/Time:  Mon Nov 15 14:56:25 2010
# Frame Rate: 200.000 fps
#------------------------------------------------------
:FULLY-SPECIFIED
:DEGREES
544
root  4.925480 40.188541 33.563478 -12.420776 -5.963093 -2.486104
LeftUpLeg  -12.198240 11.607242 1.896218
LeftLeg  17.182254 -0.000000 0.000000
LeftFoot  3.750221 8.782117 0.043869
LeftToeBase  -19.947315 0.000000 -0.000000
RightUpLeg  24.990725 -1.188273 7.946891
RightLeg  2.498346 -0.000000 0.000000
RightFoot  -3.638657 -12.444590 -9.654292
RightToeBase  -29.302874 0.000000 -0.000000
Spine  13.406252 0.258490 3.147886
Spine1  1.998971 3.909527 -4.024370
Neck  14.571714 -3.396902 -2.432299
Head  -20.164984 -6.228798 2.966077
LeftShoulder  -11.454961 13.493717 0.928993
LeftArm  13.579299 12.332860 -77.838886
LeftForeArm  10.243455 -0.000000 0.000000
LeftHand  -16.536321 14.233975 -12.330069
LeftHandThumb  0.000000 -0.000000 0.000000
RightShoulder  -6.136485 -9.065386 -3.343539
RightArm  24.796098 -18.832557 73.484156
RightForeArm  39.827345 -0.000000 0.000000
RightHand  -2.010494 -2.341556 15.212715
RightHandThumb  0.000000 -0.000000 0.000000
545
root  4.933041 40.128531 33.925976 -12.111334 -6.362777 -2.574944
LeftUpLeg  -12.361236 11.457028 1.983655
LeftLeg  14.898859 -0.000000 0.000000
LeftFoot  3.778362 8.930627 -0.104443
LeftToeBase  -20.041566 0.000000 -0.000000
RightUpLeg  25.245275 -1.169326 7.912549
RightLeg  2.435175 -0.000000 0.000000
RightFoot  -3.821346 -12.265095 -9.816422
RightToeBase  -29.912580 0.000000 -0.000000
Spine  13.154039 0.347390 3.261868
Spine1  2.024392 4.033320 -4.077710
Neck  14.499440 -3.246795 -2.496062
Head  -20.253770 -6.173239 2.928930
LeftShoulder  -11.672836 13.570008 0.772608
LeftArm  13.093499 12.045084 -77.994266
LeftForeArm  10.034639 -0.000000 0.000000
LeftHand  -16.713453 14.521504 -12.190548
LeftHandThumb  0.000000 -0.000000 0.000000
RightShoulder  -6.081966 -9.085099 -3.387940
RightArm  25.414687 -18.948457 73.007772
RightForeArm  40.516584 -0.000000 0.000000
RightHand  -2.020392 -2.429965 15.214122
RightHandThumb  0.000000 -0.000000 0.000000
546
root  4.937819 40.064888 34.291767 -11.852126 -6.772397 -2.667033
LeftUpLeg  -12.415551 11.295851 2.122909
LeftLeg  12.641558 -0.000000 0.000000
LeftFoot  3.775576 9.200660 -0.149850
LeftToeBase  -20.121480 0.000000 -0.000000
RightUpLeg  25.554908 -1.108833 7.895661
RightLeg  2.375271 -0.000000 0.000000
RightFoot  -3.975740 -12.174935 -10.014631
RightToeBase  -30.371612 0.000000 -0.000000
Spine  12.993506 0.453511 3.342699
Spine1  1.948406 4.158830 -4.077165
Neck  14.436794 -3.129658 -2.539763
Head  -20.253732 -6.121764 2.820563
LeftShoulder  -11.921352 13.797499 0.560410
LeftArm  12.722123 11.840737 -78.070434
LeftForeArm  9.870836 -0.000000 0.000000
LeftHand  -16.924081 14.797962 -12.200125
LeftHandThumb  0.000000 -0.000000 0.000000
RightShoulder  -6.007156 -9.053012 -3.457987
RightArm  25.829686 -18.992281 72.642743
RightForeArm  41.247156 -0.000000 0.000000
RightHand  -2.089457 -2.511470 15.242003
RightHandThumb  0.000000 -0.000000 0.000000
547
root  4.942115 39.998904 34.660768 -11.592029 -7.181599 -2.761069
LeftUpLeg  -12.470234 11.134804 2.262241
LeftLeg  10.384256 -0.000000 0.000000
LeftFoot  3.772572 9.470691 -0.195305
LeftToeBase  -20.201394 0.000000 -0.000000
RightUpLeg  25.864517 -1.048250 7.879100
RightLeg  2.315367 -0.000000 0.000000
RightFoot  -4.130400 -12.085298 -10.213021
RightToeBase  -30.830643 0.000000 -0.000000
Spine  12.833121 0.559857 3.423234
Spine1  1.872409 4.284341 -4.076787
Neck  14.374065 -3.012569 -2.583587
Head  -20.253791 -6.070289 2.712206
LeftShoulder  -12.170978 14.024092 0.346988
LeftArm  12.351299 11.635911 -78.145191
LeftForeArm  9.707032 -0.000000 0.000000
LeftHand  -17.135029 15.074384 -12.210767
LeftHandThumb  0.000000 -0.000000 0.000000
RightShoulder  -5.932393 -9.020834 -3.527985
RightArm  26.245079 -19.033602 72.277294
RightForeArm  41.977727 -0.000000 0.000000
RightHand  -2.158566 -2.592941 15.269984
RightHandThumb  0.000000 -0.000000 0.000000
548
root  4.947633 39.931854 35.034906 -11.289481 -7.522146 -2.887818
LeftUpLeg  -12.553532 10.907116 2.427839
LeftLeg  8.240353 -0.000000 0.000000
LeftFoot  3.751332 9.797973 0.006663
LeftToeBase  -20.301763 0.000000 -0.000000
RightUpLeg  26.141459 -1.049956 7.868430
RightLeg  2.262778 -0.000000 0.000000
RightFoot  -4.329123 -11.938087 -10.217870
RightToeBase  -31.188450 0.000000 -0.000000
Spine  12.541695 0.618895 3.519595
Spine1  1.950510 4.374232 -4.055115
Neck  14.312429 -2.843567 -2.656625
Head  -20.351257 -6.020225 2.694411
LeftShoulder  -12.428354 14.109700 0.153961
LeftArm  11.878258 11.296230 -78.293669
LeftForeArm  9.613013 -0.000000 0.000000
LeftHand  -17.066205 15.024712 -11.893154
LeftHandThumb  0.000000 -0.000000 0.000000
RightShoulder  -5.907977 -9.071554 -3.530642
RightArm  26.878755 -19.067661 71.773936
RightForeArm  42.593008 -0.000000 0.000000
RightHand  -2.009572 -2.488359 15.202821
RightHandThumb  0.000000 -0.000000 0.000000
